<svg xmlns="http://www.w3.org/2000/svg" xmlns:xlink="http://www.w3.org/1999/xlink" contentStyleType="text/css" data-diagram-type="CLASS" height="400.4498px" preserveAspectRatio="none" style="width:245px;height:400px;background:#FFFFFF;" version="1.1" viewBox="0 0 245 400" width="245.1184px" zoomAndPan="magnify"><defs/><g><text fill="#888888" font-family="Liberation Sans" font-size="8.9787" lengthAdjust="spacing" textLength="125.9955" x="107.0146" y="8.4219">Mod&#232;le classique d'habilitations</text><!--class Role--><g id="elem_Role"><rect fill="#F1F1F1" height="43.0977" id="Role" rx="2.2447" ry="2.2447" style="stroke:#181818;stroke-width:0.4489;" width="54.5842" x="17.9125" y="240.1792"/><ellipse cx="31.3805" cy="254.5451" fill="#ADD1B2" rx="9.8766" ry="9.8766" style="stroke:#181818;stroke-width:0.8979;"/><path d="M26.8912,255.5833 C26.8912,257.828 28.8132,259.4554 31.4367,259.4554 C32.545,259.4554 33.5972,259.1888 34.2706,258.7258 C34.8177,258.3471 35.1123,257.9683 35.1123,257.6035 C35.1123,257.1826 34.7335,256.8179 34.2846,256.8179 C34.0741,256.8179 33.8777,256.888 33.6954,257.0704 C33.3025,257.4632 33.3025,257.4632 33.1482,257.5474 C32.7414,257.7578 32.1662,257.8841 31.4787,257.8841 C29.683,257.8841 28.5326,256.9722 28.5326,255.5552 L28.5326,254.6153 C28.5326,253.0861 29.6269,252.0058 31.1561,252.0058 C31.6752,252.0058 32.1942,252.1321 32.6151,252.3566 C33.036,252.5951 33.1903,252.7634 33.2464,253.0861 C33.3587,253.6894 33.5831,253.9138 34.0601,253.9138 C34.3126,253.9138 34.5652,253.7876 34.7335,253.5911 C34.8458,253.4368 34.8878,253.2825 34.8878,252.8897 L34.8878,251.6691 C34.8878,251.2904 34.8738,251.1641 34.7616,251.0098 C34.6073,250.7853 34.3547,250.645 34.0601,250.645 C33.7795,250.645 33.5972,250.7432 33.4007,250.9817 C32.3486,250.5328 31.9557,250.4346 31.1,250.4346 C28.701,250.4346 26.8912,252.2443 26.8912,254.6013 L26.8912,255.5833 Z " fill="#000000"/><text fill="#000000" font-family="Liberation Sans" font-size="12.5702" lengthAdjust="spacing" textLength="25.8523" x="43.9507" y="259.1086">Role</text><line style="stroke:#181818;stroke-width:0.4489;" x1="18.8104" x2="71.5988" y1="268.911" y2="268.911"/><line style="stroke:#181818;stroke-width:0.4489;" x1="18.8104" x2="71.5988" y1="276.094" y2="276.094"/></g><!--class Fonction--><g id="elem_Fonction"><rect fill="#F1F1F1" height="43.0977" id="Fonction" rx="2.2447" ry="2.2447" style="stroke:#181818;stroke-width:0.4489;" width="76.9441" x="51.6275" y="351.515"/><ellipse cx="65.0955" cy="365.881" fill="#ADD1B2" rx="9.8766" ry="9.8766" style="stroke:#181818;stroke-width:0.8979;"/><path d="M60.6062,366.9191 C60.6062,369.1638 62.5282,370.7912 65.1517,370.7912 C66.26,370.7912 67.3122,370.5246 67.9856,370.0617 C68.5327,369.6829 68.8273,369.3041 68.8273,368.9393 C68.8273,368.5184 68.4485,368.1537 67.9996,368.1537 C67.7891,368.1537 67.5927,368.2238 67.4104,368.4062 C67.0175,368.799 67.0175,368.799 66.8632,368.8832 C66.4564,369.0936 65.8812,369.2199 65.1937,369.2199 C63.398,369.2199 62.2476,368.308 62.2476,366.8911 L62.2476,365.9511 C62.2476,364.4219 63.3419,363.3417 64.8711,363.3417 C65.3902,363.3417 65.9092,363.4679 66.3301,363.6924 C66.751,363.9309 66.9053,364.0992 66.9614,364.4219 C67.0737,365.0252 67.2981,365.2496 67.7751,365.2496 C68.0276,365.2496 68.2802,365.1234 68.4485,364.927 C68.5608,364.7727 68.6028,364.6183 68.6028,364.2255 L68.6028,363.005 C68.6028,362.6262 68.5888,362.4999 68.4766,362.3456 C68.3223,362.1211 68.0697,361.9808 67.7751,361.9808 C67.4945,361.9808 67.3122,362.079 67.1157,362.3175 C66.0636,361.8686 65.6707,361.7704 64.815,361.7704 C62.416,361.7704 60.6062,363.5802 60.6062,365.9371 L60.6062,366.9191 Z " fill="#000000"/><text fill="#000000" font-family="Liberation Sans" font-size="12.5702" lengthAdjust="spacing" textLength="48.2123" x="77.6657" y="370.4444">Fonction</text><line style="stroke:#181818;stroke-width:0.4489;" x1="52.5254" x2="127.6737" y1="380.2469" y2="380.2469"/><line style="stroke:#181818;stroke-width:0.4489;" x1="52.5254" x2="127.6737" y1="387.4298" y2="387.4298"/></g><!--class Groupe--><g id="elem_Groupe"><rect fill="#F1F1F1" height="43.0977" id="Groupe" rx="2.2447" ry="2.2447" style="stroke:#181818;stroke-width:0.4489;" width="70.659" x="6.2851" y="17.5076"/><ellipse cx="19.7531" cy="31.8735" fill="#ADD1B2" rx="9.8766" ry="9.8766" style="stroke:#181818;stroke-width:0.8979;"/><path d="M15.2638,32.9117 C15.2638,35.1563 17.1858,36.7837 19.8092,36.7837 C20.9176,36.7837 21.9697,36.5172 22.6431,36.0542 C23.1903,35.6754 23.4849,35.2966 23.4849,34.9319 C23.4849,34.511 23.1061,34.1462 22.6572,34.1462 C22.4467,34.1462 22.2503,34.2164 22.0679,34.3987 C21.6751,34.7916 21.6751,34.7916 21.5208,34.8757 C21.114,35.0862 20.5388,35.2124 19.8513,35.2124 C18.0556,35.2124 16.9052,34.3005 16.9052,32.8836 L16.9052,31.9436 C16.9052,30.4145 17.9995,29.3342 19.5287,29.3342 C20.0477,29.3342 20.5668,29.4605 20.9877,29.6849 C21.4086,29.9234 21.5629,30.0918 21.619,30.4145 C21.7312,31.0177 21.9557,31.2422 22.4327,31.2422 C22.6852,31.2422 22.9378,31.1159 23.1061,30.9195 C23.2183,30.7652 23.2604,30.6109 23.2604,30.218 L23.2604,28.9975 C23.2604,28.6187 23.2464,28.4925 23.1342,28.3381 C22.9798,28.1137 22.7273,27.9734 22.4327,27.9734 C22.1521,27.9734 21.9697,28.0716 21.7733,28.3101 C20.7211,27.8611 20.3283,27.7629 19.4725,27.7629 C17.0736,27.7629 15.2638,29.5727 15.2638,31.9296 L15.2638,32.9117 Z " fill="#000000"/><text fill="#000000" font-family="Liberation Sans" font-size="12.5702" lengthAdjust="spacing" textLength="41.9272" x="32.3233" y="36.4369">Groupe</text><line style="stroke:#181818;stroke-width:0.4489;" x1="7.183" x2="76.0462" y1="46.2394" y2="46.2394"/><line style="stroke:#181818;stroke-width:0.4489;" x1="7.183" x2="76.0462" y1="53.4224" y2="53.4224"/></g><!--class Utilisateur--><g id="elem_Utilisateur"><rect fill="#F1F1F1" height="43.0977" id="Utilisateur" rx="2.2447" ry="2.2447" style="stroke:#181818;stroke-width:0.4489;" width="84.6163" x="92.6871" y="128.8434"/><ellipse cx="106.1551" cy="143.2093" fill="#ADD1B2" rx="9.8766" ry="9.8766" style="stroke:#181818;stroke-width:0.8979;"/><path d="M101.6658,144.2475 C101.6658,146.4921 103.5878,148.1195 106.2112,148.1195 C107.3195,148.1195 108.3717,147.853 109.0451,147.39 C109.5923,147.0112 109.8869,146.6324 109.8869,146.2677 C109.8869,145.8468 109.5081,145.482 109.0592,145.482 C108.8487,145.482 108.6523,145.5522 108.4699,145.7346 C108.0771,146.1274 108.0771,146.1274 107.9228,146.2116 C107.5159,146.422 106.9408,146.5483 106.2533,146.5483 C104.4576,146.5483 103.3072,145.6364 103.3072,144.2194 L103.3072,143.2795 C103.3072,141.7503 104.4015,140.67 105.9306,140.67 C106.4497,140.67 106.9688,140.7963 107.3897,141.0208 C107.8106,141.2593 107.9649,141.4276 108.021,141.7503 C108.1332,142.3535 108.3577,142.578 108.8347,142.578 C109.0872,142.578 109.3397,142.4517 109.5081,142.2553 C109.6203,142.101 109.6624,141.9467 109.6624,141.5539 L109.6624,140.3333 C109.6624,139.9545 109.6484,139.8283 109.5362,139.674 C109.3818,139.4495 109.1293,139.3092 108.8347,139.3092 C108.5541,139.3092 108.3717,139.4074 108.1753,139.6459 C107.1231,139.197 106.7303,139.0988 105.8745,139.0988 C103.4755,139.0988 101.6658,140.9085 101.6658,143.2654 L101.6658,144.2475 Z " fill="#000000"/><text fill="#000000" font-family="Liberation Sans" font-size="12.5702" lengthAdjust="spacing" textLength="55.8845" x="118.7253" y="147.7728">Utilisateur</text><line style="stroke:#181818;stroke-width:0.4489;" x1="93.5849" x2="176.4055" y1="157.5752" y2="157.5752"/><line style="stroke:#181818;stroke-width:0.4489;" x1="93.5849" x2="176.4055" y1="164.7582" y2="164.7582"/></g><!--reverse link Role to Fonction--><g id="link_Role_Fonction"><path codeLine="4" d="M57.0861,293.6883 C61.7281,305.7198 63.8565,311.0211 69.4502,324.579 C73.0507,333.3242 77.1719,342.8955 80.7813,351.1559 " fill="#FFFFFF" fill-opacity="0.00000" id="Role-backto-Fonction" style="stroke:#181818;stroke-width:0.8979;"/><polygon fill="#FFFFFF" fill-opacity="0.00000" points="53.2077,283.6361,51.7962,289.955,57.0861,293.6883,58.4977,287.3694,53.2077,283.6361" style="stroke:#181818;stroke-width:0.8979;"/><text fill="#000000" font-family="Liberation Sans" font-size="11.6723" lengthAdjust="spacing" textLength="40.8816" x="70.3481" y="322.0594">contient</text><text fill="#000000" font-family="Liberation Sans" font-size="11.6723" lengthAdjust="spacing" textLength="17.5199" x="36.076" y="301.5605">0..*</text><text fill="#000000" font-family="Liberation Sans" font-size="11.6723" lengthAdjust="spacing" textLength="17.5199" x="58.7668" y="341.7247">0..*</text></g><!--reverse link Groupe to Utilisateur--><g id="link_Groupe_Utilisateur"><path codeLine="5" d="M66.3845,69.0108 C83.0041,88.5035 100.6781,109.2429 117.2797,128.7087 " fill="#FFFFFF" fill-opacity="0.00000" id="Groupe-backto-Utilisateur" style="stroke:#181818;stroke-width:0.8979;"/><polygon fill="#FFFFFF" fill-opacity="0.00000" points="59.3941,60.8118,60.1563,67.2414,66.3845,69.0108,65.6223,62.5811,59.3941,60.8118" style="stroke:#181818;stroke-width:0.8979;"/><text fill="#000000" font-family="Liberation Sans" font-size="11.6723" lengthAdjust="spacing" textLength="40.8816" x="94.7881" y="99.3878">contient</text><text fill="#000000" font-family="Liberation Sans" font-size="11.6723" lengthAdjust="spacing" textLength="17.5199" x="44.6453" y="78.699">0..*</text><text fill="#000000" font-family="Liberation Sans" font-size="11.6723" lengthAdjust="spacing" textLength="17.5199" x="92.9034" y="119.3406">0..*</text></g><!--link Utilisateur to Role--><g id="link_Utilisateur_Role"><path codeLine="6" d="M95.0664,172.3901 C84.3818,179.6 73.6522,188.5158 65.8587,198.8772 C56.7902,210.9266 52.771,221.9256 49.844,234.7651 " fill="#FFFFFF" fill-opacity="0.00000" id="Utilisateur-to-Role" style="stroke:#181818;stroke-width:0.8979;"/><polygon fill="#181818" points="48.6466,240.0176,53.9443,232.9372,49.6444,235.6406,46.9411,231.3406,48.6466,240.0176" style="stroke:#181818;stroke-width:0.8979;"/><text fill="#000000" font-family="Liberation Sans" font-size="11.6723" lengthAdjust="spacing" textLength="44.1302" x="66.7566" y="210.7236">poss&#232;de</text><text fill="#000000" font-family="Liberation Sans" font-size="11.6723" lengthAdjust="spacing" textLength="17.5199" x="68.0598" y="189.2597">0..*</text><text fill="#000000" font-family="Liberation Sans" font-size="11.6723" lengthAdjust="spacing" textLength="17.5199" x="52.0784" y="230.642">0..*</text></g><!--link Utilisateur to Fonction--><g id="link_Utilisateur_Fonction"><path codeLine="7" d="M135.0845,172.3362 C134.6804,205.4766 131.6456,271.4969 115.2416,324.579 C112.4222,333.6834 110.4849,338.388 106.0135,346.406 " fill="#FFFFFF" fill-opacity="0.00000" id="Utilisateur-to-Fonction" style="stroke:#181818;stroke-width:0.8979;"/><polygon fill="#181818" points="103.3897,351.111,110.4622,345.8027,105.5762,347.1901,104.1888,342.3042,103.3897,351.111" style="stroke:#181818;stroke-width:0.8979;"/><text fill="#000000" font-family="Liberation Sans" font-size="11.6723" lengthAdjust="spacing" textLength="106.4015" x="131.9958" y="266.3915">dispose privil&#232;ge sur</text><text fill="#000000" font-family="Liberation Sans" font-size="11.6723" lengthAdjust="spacing" textLength="17.5199" x="116.1263" y="189.9111">0..*</text><text fill="#000000" font-family="Liberation Sans" font-size="11.6723" lengthAdjust="spacing" textLength="17.5199" x="87.6714" y="342.0148">0..*</text></g><!--link Groupe to Role--><g id="link_Groupe_Role"><path codeLine="8" d="M37.8003,60.9824 C33.5624,87.0296 27.6903,132.7491 30.8418,171.9411 C32.7184,195.3127 36.2924,216.5304 39.794,234.4698 " fill="#FFFFFF" fill-opacity="0.00000" id="Groupe-to-Role" style="stroke:#181818;stroke-width:0.8979;"/><polygon fill="#181818" points="40.8261,239.7572,42.803,231.138,39.9661,235.351,35.7531,232.5141,40.8261,239.7572" style="stroke:#181818;stroke-width:0.8979;"/><text fill="#000000" font-family="Liberation Sans" font-size="11.6723" lengthAdjust="spacing" textLength="44.1302" x="31.7397" y="155.0557">poss&#232;de</text><text fill="#000000" font-family="Liberation Sans" font-size="11.6723" lengthAdjust="spacing" textLength="6.4916" x="29.8447" y="78.9112">1</text><text fill="#000000" font-family="Liberation Sans" font-size="11.6723" lengthAdjust="spacing" textLength="17.5199" x="20.3594" y="230.6562">0..*</text></g><!--SRC=[XOuz3i8m34RtdiBgWeHK52HO61XX0GOG1p2D0OkqAN72UHXx3denqahbPq1ijlpUv-zCgCd1skgcDWIvGH6-1W8zEEE13NlqR4j9vC9bXGuBq7J4OFp2bdw31S6A3-Gw2dROaZd6fAbImubIoTR69LMZqJ05i5dMpr7FMsS6QHwJc4gV9ajdG_N2F-YzZrK4FGNtk7yf7vSUph9vFxRVEw6o8asjwP_GruBeQ9Qe4LIERsoQ-aGWmRrRZZlpvwSd]--></g></svg>