<?xml version="1.0" encoding="UTF-8" standalone="no"?><svg xmlns="http://www.w3.org/2000/svg" xmlns:xlink="http://www.w3.org/1999/xlink" contentScriptType="application/ecmascript" contentStyleType="text/css" height="400.3417px" preserveAspectRatio="none" style="width:243px;height:400px;" version="1.1" viewBox="0 0 243 400" width="243.9056px" zoomAndPan="magnify"><defs><filter height="300%" id="f1hqjs2e2fc1qv" width="300%" x="-1" y="-1"><feGaussianBlur result="blurOut" stdDeviation="1.682107891451475"/><feColorMatrix in="blurOut" result="blurOut2" type="matrix" values="0 0 0 0 0 0 0 0 0 0 0 0 0 0 0 0 0 0 .4 0"/><feOffset dx="3.36421578290295" dy="3.36421578290295" in="blurOut2" result="blurOut3"/><feBlend in="SourceGraphic" in2="blurOut3" mode="normal"/></filter></defs><g><text fill="#888888" font-family="Liberation Sans" font-size="8.4105" lengthAdjust="spacingAndGlyphs" textLength="126.1581" x="106.8139" y="7.8069">Modèle classique d'habilitations</text><text fill="#000000" font-family="Liberation Sans" font-size="15.139" lengthAdjust="spacingAndGlyphs" textLength="36.1653" x="98.4033" y="23.8427">roles</text><!--MD5=[a3638c1e5b65d287ecad7f06f5c0f212]
class Role--><rect fill="#FEFECE" filter="url(#f1hqjs2e2fc1qv)" height="40.3706" id="Role" style="stroke: #A80036; stroke-width: 1.2615809185886064;" width="49.6222" x="22.2879" y="243.564"/><ellipse cx="34.9037" cy="257.0208" fill="#ADD1B2" rx="9.2516" ry="9.2516" style="stroke: #A80036; stroke-width: 0.8410539457257376;"/><path d="M37.4006,261.7649 Q36.9144,262.0146 36.3756,262.1329 Q35.8368,262.2643 35.2454,262.2643 Q33.1428,262.2643 32.0258,260.8844 Q30.9219,259.4914 30.9219,256.8631 Q30.9219,254.2348 32.0258,252.8418 Q33.1428,251.4488 35.2454,251.4488 Q35.8368,251.4488 36.3756,251.5803 Q36.9275,251.7117 37.4006,251.9614 L37.4006,254.248 Q36.875,253.7617 36.3756,253.5383 Q35.8762,253.3018 35.3505,253.3018 Q34.2204,253.3018 33.6422,254.2086 Q33.0639,255.1022 33.0639,256.8631 Q33.0639,258.6241 33.6422,259.5308 Q34.2204,260.4245 35.3505,260.4245 Q35.8762,260.4245 36.3756,260.2011 Q36.875,259.9645 37.4006,259.4783 L37.4006,261.7649 Z "/><text fill="#000000" font-family="Liberation Sans" font-size="10.0926" lengthAdjust="spacingAndGlyphs" textLength="22.7085" x="46.6785" y="260.5148">Role</text><line style="stroke: #A80036; stroke-width: 1.2615809185886064;" x1="23.129" x2="71.0691" y1="270.4777" y2="270.4777"/><line style="stroke: #A80036; stroke-width: 1.2615809185886064;" x1="23.129" x2="71.0691" y1="277.2061" y2="277.2061"/><!--MD5=[b5be277daafc4d92f351564e754c5029]
class Fonction--><rect fill="#FEFECE" filter="url(#f1hqjs2e2fc1qv)" height="40.3706" id="Fonction" style="stroke: #A80036; stroke-width: 1.2615809185886064;" width="72.3306" x="52.9864" y="348.6957"/><ellipse cx="65.6022" cy="362.1526" fill="#ADD1B2" rx="9.2516" ry="9.2516" style="stroke: #A80036; stroke-width: 0.8410539457257376;"/><path d="M68.0991,366.8966 Q67.6129,367.1463 67.0741,367.2646 Q66.5353,367.396 65.9439,367.396 Q63.8413,367.396 62.7242,366.0162 Q61.6203,364.6232 61.6203,361.9949 Q61.6203,359.3666 62.7242,357.9736 Q63.8413,356.5806 65.9439,356.5806 Q66.5353,356.5806 67.0741,356.712 Q67.626,356.8434 68.0991,357.0931 L68.0991,359.3797 Q67.5734,358.8935 67.0741,358.6701 Q66.5747,358.4335 66.049,358.4335 Q64.9189,358.4335 64.3406,359.3403 Q63.7624,360.2339 63.7624,361.9949 Q63.7624,363.7558 64.3406,364.6626 Q64.9189,365.5562 66.049,365.5562 Q66.5747,365.5562 67.0741,365.3328 Q67.5734,365.0963 68.0991,364.61 L68.0991,366.8966 Z "/><text fill="#000000" font-family="Liberation Sans" font-size="10.0926" lengthAdjust="spacingAndGlyphs" textLength="45.4169" x="77.377" y="365.6466">Fonction</text><line style="stroke: #A80036; stroke-width: 1.2615809185886064;" x1="53.8275" x2="124.476" y1="375.6094" y2="375.6094"/><line style="stroke: #A80036; stroke-width: 1.2615809185886064;" x1="53.8275" x2="124.476" y1="382.3379" y2="382.3379"/><!--MD5=[464dc09fd5cc5a2ee349e03b8e6ce5ad]
class Groupe--><rect fill="#FEFECE" filter="url(#f1hqjs2e2fc1qv)" height="40.3706" id="Groupe" style="stroke: #A80036; stroke-width: 1.2615809185886064;" width="65.6022" x="5.8874" y="33.3005"/><ellipse cx="18.5032" cy="46.7573" fill="#ADD1B2" rx="9.2516" ry="9.2516" style="stroke: #A80036; stroke-width: 0.8410539457257376;"/><path d="M21.0001,51.5014 Q20.5138,51.7511 19.975,51.8694 Q19.4362,52.0008 18.8449,52.0008 Q16.7422,52.0008 15.6252,50.6209 Q14.5213,49.2279 14.5213,46.5996 Q14.5213,43.9714 15.6252,42.5784 Q16.7422,41.1854 18.8449,41.1854 Q19.4362,41.1854 19.975,41.3168 Q20.527,41.4482 21.0001,41.6979 L21.0001,43.9845 Q20.4744,43.4983 19.975,43.2749 Q19.4757,43.0383 18.95,43.0383 Q17.8198,43.0383 17.2416,43.9451 Q16.6634,44.8387 16.6634,46.5996 Q16.6634,48.3606 17.2416,49.2674 Q17.8198,50.161 18.95,50.161 Q19.4757,50.161 19.975,49.9376 Q20.4744,49.701 21.0001,49.2148 L21.0001,51.5014 Z "/><text fill="#000000" font-family="Liberation Sans" font-size="10.0926" lengthAdjust="spacingAndGlyphs" textLength="38.6885" x="30.2779" y="50.2513">Groupe</text><line style="stroke: #A80036; stroke-width: 1.2615809185886064;" x1="6.7284" x2="70.6485" y1="60.2142" y2="60.2142"/><line style="stroke: #A80036; stroke-width: 1.2615809185886064;" x1="6.7284" x2="70.6485" y1="66.9426" y2="66.9426"/><!--MD5=[354e8650cefe639d77b0834953981666]
class Utilisateur--><rect fill="#FEFECE" filter="url(#f1hqjs2e2fc1qv)" height="40.3706" id="Utilisateur" style="stroke: #A80036; stroke-width: 1.2615809185886064;" width="80.7412" x="90.8338" y="138.4322"/><ellipse cx="103.4496" cy="151.8891" fill="#ADD1B2" rx="9.2516" ry="9.2516" style="stroke: #A80036; stroke-width: 0.8410539457257376;"/><path d="M105.9465,156.6332 Q105.4603,156.8828 104.9215,157.0011 Q104.3827,157.1325 103.7913,157.1325 Q101.6887,157.1325 100.5717,155.7527 Q99.4678,154.3597 99.4678,151.7314 Q99.4678,149.1031 100.5717,147.7101 Q101.6887,146.3171 103.7913,146.3171 Q104.3827,146.3171 104.9215,146.4485 Q105.4734,146.5799 105.9465,146.8296 L105.9465,149.1162 Q105.4209,148.63 104.9215,148.4066 Q104.4221,148.1701 103.8964,148.1701 Q102.7663,148.1701 102.1881,149.0768 Q101.6098,149.9704 101.6098,151.7314 Q101.6098,153.4923 102.1881,154.3991 Q102.7663,155.2927 103.8964,155.2927 Q104.4221,155.2927 104.9215,155.0693 Q105.4209,154.8328 105.9465,154.3465 L105.9465,156.6332 Z "/><text fill="#000000" font-family="Liberation Sans" font-size="10.0926" lengthAdjust="spacingAndGlyphs" textLength="53.8275" x="115.2244" y="155.3831">Utilisateur</text><line style="stroke: #A80036; stroke-width: 1.2615809185886064;" x1="91.6749" x2="170.734" y1="165.3459" y2="165.3459"/><line style="stroke: #A80036; stroke-width: 1.2615809185886064;" x1="91.6749" x2="170.734" y1="172.0744" y2="172.0744"/><!--MD5=[bec0be55b3f1e2a49b5ab596648caee9]
reverse link Role to Fonction--><path codeLine="5" d="M54.4013,294.8983 C56.9814,304.2369 60.1862,314.4019 63.9201,323.4641 C67.4251,331.9707 72.1427,340.9086 76.55,348.5838 " fill="none" id="Role-backto-Fonction" style="stroke: #A80036; stroke-width: 0.8410539457257376;"/><polygon fill="#FFFFFF" points="51.5705,284.0466,49.5891,289.7787,54.1182,293.8124,56.0996,288.0803,51.5705,284.0466" style="stroke: #A80036; stroke-width: 0.8410539457257376;"/><text fill="#000000" font-family="Liberation Sans" font-size="10.9337" lengthAdjust="spacingAndGlyphs" textLength="43.7348" x="64.7612" y="320.1561">contient</text><text fill="#000000" font-family="Liberation Sans" font-size="10.9337" lengthAdjust="spacingAndGlyphs" textLength="19.3442" x="30.9586" y="300.6941">0..*</text><text fill="#000000" font-family="Liberation Sans" font-size="10.9337" lengthAdjust="spacingAndGlyphs" textLength="19.3442" x="51.4981" y="339.3136">0..*</text><!--MD5=[11604dec9f8249aa9f94790c5d520575]
reverse link Groupe to Utilisateur--><path codeLine="6" d="M63.8553,82.0844 C79.5465,99.9152 99.3574,122.4277 113.4212,138.4093 " fill="none" id="Groupe-backto-Utilisateur" style="stroke: #A80036; stroke-width: 0.8410539457257376;"/><polygon fill="#FFFFFF" points="56.5265,73.7563,57.3346,79.7671,63.1939,81.333,62.3858,75.3222,56.5265,73.7563" style="stroke: #A80036; stroke-width: 0.8410539457257376;"/><text fill="#000000" font-family="Liberation Sans" font-size="10.9337" lengthAdjust="spacingAndGlyphs" textLength="43.7348" x="90.8338" y="109.8927">contient</text><text fill="#000000" font-family="Liberation Sans" font-size="10.9337" lengthAdjust="spacingAndGlyphs" textLength="19.3442" x="39.1727" y="90.3973">0..*</text><text fill="#000000" font-family="Liberation Sans" font-size="10.9337" lengthAdjust="spacingAndGlyphs" textLength="19.3442" x="87.0415" y="129.1619">0..*</text><!--MD5=[c46acf59835e08b3e4508ddb53ac3ee0]
link Utilisateur to Role--><path codeLine="7" d="M90.5325,178.3426 C79.9864,185.1755 69.5515,193.7546 62.238,204.0344 C55.013,214.1897 51.2288,227.473 49.2498,238.9323 " fill="none" id="Utilisateur-to-Role" style="stroke: #A80036; stroke-width: 0.8410539457257376;"/><polygon fill="#A80036" points="48.5534,243.3877,53.0464,236.4287,49.2029,239.2329,46.3987,235.3894,48.5534,243.3877" style="stroke: #A80036; stroke-width: 0.8410539457257376;"/><text fill="#000000" font-family="Liberation Sans" font-size="10.9337" lengthAdjust="spacingAndGlyphs" textLength="45.4169" x="63.079" y="215.0244">possède</text><text fill="#000000" font-family="Liberation Sans" font-size="10.9337" lengthAdjust="spacingAndGlyphs" textLength="19.3442" x="64.7379" y="177.6019">0..*</text><text fill="#000000" font-family="Liberation Sans" font-size="10.9337" lengthAdjust="spacingAndGlyphs" textLength="19.3442" x="51.4045" y="234.101">0..*</text><!--MD5=[7cda48b9fa30f5b6b5972c6966c2ac50]
link Utilisateur to Fonction--><path codeLine="8" d="M131.2874,178.8852 C130.8969,210.4696 128.0271,273.0397 112.7012,323.4641 C110.5409,330.5718 107.2784,337.8832 103.8645,344.5064 " fill="none" id="Utilisateur-to-Fonction" style="stroke: #A80036; stroke-width: 0.8410539457257376;"/><polygon fill="#A80036" points="101.7278,348.5334,108.2475,343.4237,103.6989,344.8186,102.3039,340.27,101.7278,348.5334" style="stroke: #A80036; stroke-width: 0.8410539457257376;"/><text fill="#000000" font-family="Liberation Sans" font-size="10.9337" lengthAdjust="spacingAndGlyphs" textLength="109.337" x="127.8402" y="267.5903">dispose privilège sur</text><text fill="#000000" font-family="Liberation Sans" font-size="10.9337" lengthAdjust="spacingAndGlyphs" textLength="19.3442" x="109.6058" y="195.5256">0..*</text><text fill="#000000" font-family="Liberation Sans" font-size="10.9337" lengthAdjust="spacingAndGlyphs" textLength="19.3442" x="83.1277" y="339.2503">0..*</text><!--MD5=[d40c3ce33569198fd79f4ecda6b0889c]
link Groupe to Role--><path codeLine="9" d="M35.0083,73.7025 C30.9985,98.4999 25.631,141.8024 29.4369,178.8028 C31.554,199.3847 36.484,222.3356 40.5989,239.1877 " fill="none" id="Groupe-to-Role" style="stroke: #A80036; stroke-width: 0.8410539457257376;"/><polygon fill="#A80036" points="41.6253,243.3356,43.0726,235.1796,40.615,239.2535,36.5412,236.796,41.6253,243.3356" style="stroke: #A80036; stroke-width: 0.8410539457257376;"/><text fill="#000000" font-family="Liberation Sans" font-size="10.9337" lengthAdjust="spacingAndGlyphs" textLength="45.4169" x="30.2779" y="162.4585">possède</text><text fill="#000000" font-family="Liberation Sans" font-size="10.9337" lengthAdjust="spacingAndGlyphs" textLength="6.7284" x="26.4747" y="90.6627">1</text><text fill="#000000" font-family="Liberation Sans" font-size="10.9337" lengthAdjust="spacingAndGlyphs" textLength="19.3442" x="18.5892" y="234.369">0..*</text><!--MD5=[278b6286f8064469c8be573fdcfda1fb]
@startuml
title roles
header Modèle classique d'habilitations
skinparam defaultFontName Liberation Sans
scale 500*400
Role "0..*"  o- - "0..*" Fonction: "contient"
Groupe "0..*" o- - "0..*" Utilisateur : "contient"
Utilisateur "0..*" - -> "0..*" Role : "possède"
Utilisateur "0..*" - -> "0..*" Fonction : "dispose privilège sur"
Groupe "1" - ->"0..*" Role : "possède"
@enduml

PlantUML version 1.2020.19(Mon Oct 12 15:10:01 UTC 2020)
(GPL source distribution)
Java Runtime: OpenJDK Runtime Environment
JVM: OpenJDK 64-Bit Server VM
Default Encoding: UTF-8
Language: en
Country: null
--></g></svg>